<svg width="19" height="20" viewBox="0 0 19 20" fill="none" xmlns="http://www.w3.org/2000/svg">
<path d="M12.3342 10.0002C12.3342 11.5677 11.0676 12.8343 9.50006 12.8343C7.93256 12.8343 6.66589 11.5677 6.66589 10.0002C6.66589 8.43268 7.93256 7.16602 9.50006 7.16602C11.0676 7.16602 12.3342 8.43268 12.3342 10.0002Z" stroke="#888888" stroke-width="1.1875" stroke-linecap="round" stroke-linejoin="round"/>
<path d="M9.5 16.5469C12.2946 16.5469 14.8992 14.9002 16.7121 12.0502C17.4246 10.934 17.4246 9.05774 16.7121 7.94149C14.8992 5.09149 12.2946 3.44482 9.5 3.44482C6.70541 3.44482 4.10083 5.09149 2.28791 7.94149C1.57542 9.05774 1.57542 10.934 2.28791 12.0502C4.10083 14.9002 6.70541 16.5469 9.5 16.5469Z" stroke="#888888" stroke-width="1.1875" stroke-linecap="round" stroke-linejoin="round"/>
</svg>
