<svg width="26" height="24" viewBox="0 0 26 24" fill="none" xmlns="http://www.w3.org/2000/svg">
<path d="M21.8496 7.31942C22.171 7.77367 21.9782 8.46082 21.3415 8.74556L8.52274 14.4786C7.88607 14.7633 7.24535 14.449 7.12098 13.9066C6.75934 12.3295 6.86846 10.668 7.45422 9.13441C8.23239 7.09701 9.78805 5.45218 11.779 4.56177C13.7699 3.67136 16.033 3.6083 18.0704 4.38647C19.604 4.97223 20.9152 5.99852 21.8496 7.31942Z" fill="#015B2B" stroke="#015B2B"/>
<path d="M17.4605 9.16377C18.0972 8.87903 18.7379 9.1934 18.8623 9.73575C19.2239 11.3128 19.1148 12.9743 18.529 14.508C17.7509 16.5454 16.1952 18.1902 14.2043 19.0806C12.2134 19.971 9.95031 20.0341 7.9129 19.2559C6.37928 18.6701 5.06807 17.6439 4.13363 16.323C3.81228 15.8687 4.00509 15.1816 4.64175 14.8968L17.4605 9.16377Z" fill="#37B34A" stroke="#005D2C"/>
</svg>
